<svg xmlns="http://www.w3.org/2000/svg" xmlns:xlink="http://www.w3.org/1999/xlink" width="1920" zoomAndPan="magnify" viewBox="0 0 1440 809.999993" height="1080" preserveAspectRatio="xMidYMid meet" version="1.0"><path fill="#02507d" d="M 1015.59375 344.34375 C 1020.9375 378.28125 1022.007812 413.816406 1017.730469 449.625 C 993.148438 659.378906 803.164062 809.28125 593.410156 784.699219 C 424 764.660156 293.605469 636.933594 262.609375 477.945312 C 262.875 477.679688 685.59375 554.902344 1015.59375 344.34375 M 134.082031 386.828125 C 17.3125 319.226562 116.179688 235.589844 228.40625 230.246094 C 199.546875 239.601562 71.019531 326.441406 254.324219 378.28125 C 255.125 378.546875 256.195312 378.8125 256.996094 379.082031 C 257.53125 372.933594 258.066406 366.789062 258.601562 360.375 C 283.183594 150.621094 473.167969 0.71875 682.921875 25.300781 C 849.390625 44.808594 978.183594 168.789062 1011.851562 323.769531 C 935.964844 375.339844 779.917969 421.300781 617.722656 438.132812 C 426.671875 457.90625 226.535156 440.269531 134.082031 386.828125 Z M 134.082031 386.828125 " fill-opacity="1" fill-rule="evenodd"/><path fill="#02507d" d="M 1117.398438 108.402344 C 1156.410156 129.511719 1219.472656 170.125 1244.589844 157.835938 C 1263.828125 148.214844 1283.332031 138.597656 1302.839844 128.976562 C 1365.097656 98.515625 1388.078125 150.085938 1334.90625 185.890625 L 1286.007812 220.09375 C 1263.027344 236.125 1266.234375 302.925781 1267.835938 347.285156 C 1268.636719 367.058594 1261.15625 378.011719 1251.269531 384.960938 C 1246.191406 388.433594 1243.789062 387.632812 1242.183594 381.753906 C 1232.03125 342.742188 1222.144531 303.730469 1211.988281 264.71875 C 1210.121094 256.96875 1207.714844 253.761719 1199.964844 257.503906 C 1172.710938 270.863281 1145.457031 283.957031 1118.199219 297.316406 C 1116.0625 298.386719 1114.996094 299.453125 1115.527344 301.859375 C 1119.003906 327.511719 1115.527344 354.5 1098.160156 364.117188 C 1094.152344 366.253906 1091.746094 366.523438 1090.945312 361.179688 C 1088.539062 345.144531 1088.007812 324.035156 1085.335938 309.339844 C 1073.578125 312.546875 1067.433594 302.660156 1074.378906 293.574219 L 1031.089844 270.59375 C 1021.203125 265.25 1026.816406 260.175781 1034.566406 257.769531 C 1051.132812 252.691406 1074.644531 260.441406 1093.351562 270.59375 C 1096.289062 272.199219 1097.894531 272.464844 1100.566406 270.328125 L 1175.917969 209.941406 C 1182.0625 204.863281 1180.460938 202.992188 1175.117188 198.71875 L 1074.914062 116.953125 C 1069.300781 112.410156 1070.90625 109.46875 1077.316406 106.796875 C 1090.144531 101.453125 1101.101562 99.316406 1117.398438 108.402344 " fill-opacity="1" fill-rule="evenodd"/></svg>